# xmcd CD database file
#
# Track frame offsets:
#	150
#	18477
#	38467
#	53185
#	84095
#	99602
#	114640
#	125792
#	153095
#
# Disc length: 2249 seconds
#
# Revision: 0
# Processed by: cddbd v1.5.1PL2 Copyright (c) Steve Scherf et al.
# Submitted via: CD2WAV32(JP) R3.22
#
DISCID=6508c709
DTITLE=BreakDown - ALIVE
DYEAR=1992
DGENRE=Blues
TTITLE0=Got My Eyes on YOu
TTITLE1=Sugar Baby
TTITLE2=One Way Out
TTITLE3=TAXI Bluse
TTITLE4=I Don't Care Where I Get My Lovin'
TTITLE5=Just A Feeling
TTITLE6=Up the Line
TTITLE7=I Wish You Would
TTITLE8=Those Precious Words
EXTD=
EXTT0=
EXTT1=
EXTT2=
EXTT3=
EXTT4=
EXTT5=
EXTT6=
EXTT7=
EXTT8=
PLAYORDER=
